<svg width="192" height="123" viewBox="0 0 192 123" fill="none" xmlns="http://www.w3.org/2000/svg">
<path d="M75.8735 107.049L70.7899 107.009L23.6658 106.675L16.5822 122.45H0L14.2709 91.8389H69.0377L75.8735 107.049Z" fill="#23C9FF"/>
<path d="M114.116 122.45H97.2741L89.7121 107.049L80.4844 88.2539L78.0003 83.1991L63.2913 53.2394L55.9656 38.3114L41.8791 68.1731H58.4094L65.1587 83.1991H18.6514L57.0953 0L65.4642 18.0058L72.542 33.222L80.7957 50.9742L88.7899 68.1731L93.8851 79.13L98.1272 88.2539L106.871 107.049L106.957 107.234H107.032L114.116 122.45Z" fill="#23C9FF"/>
<path d="M128.081 122.45H128.07L126.116 118.467L128.081 122.45Z" fill="white"/>
<path d="M96.2655 18.0058L95.0551 15.4006H95.032L128.928 88.2539L96.2655 18.0058ZM120.513 107.049L120.381 106.778H120.346L120.479 107.049L126.116 118.467L120.508 107.049H120.513ZM96.2655 18.0058L95.0551 15.4006H95.032L128.928 88.2539L96.2655 18.0058Z" fill="#1D1D1D"/>
<path d="M190.998 61.4123C187.972 105.816 158.56 117.966 144.352 121.251C139.753 122.312 136.744 122.45 136.744 122.45H128.081L126.116 118.467L120.508 107.049L120.375 106.778H132.75C134.317 106.75 135.862 106.646 137.384 106.456C159.626 103.776 176.727 84.8245 176.727 62.0348C176.727 61.7293 176.727 61.4181 176.715 61.1068C176.179 35.0318 154.675 14.294 128.606 14.709L95.0493 15.4006H95.0263L128.923 88.2539H111.188L86.6458 38.5592L78.081 21.222L67.6083 0H138.237C194.001 11.8329 190.998 61.4123 190.998 61.4123Z" fill="#1D1D1D"/>
</svg>
